<?xml version="1.0" ?><svg viewBox="0 0 60 60" xmlns="http://www.w3.org/2000/svg"><title/><g id="colour"><circle cx="16" cy="46" fill="#aaa" r="10"/><circle cx="44" cy="46" fill="#aaa" r="10"/><path d="M16,36a10.04236,10.04236,0,0,0-2,.20087,10.00144,10.00144,0,0,1,0,19.59827A10.00053,10.00053,0,1,0,16,36Z" fill="#999"/><path d="M44,36a10.04236,10.04236,0,0,0-2,.20087,10.00144,10.00144,0,0,1,0,19.59827A10.00053,10.00053,0,1,0,44,36Z" fill="#999"/><path d="M16,53a6.97629,6.97629,0,0,1-6.90332-5.835,1.00012,1.00012,0,1,1,1.97266-.33105A4.98136,4.98136,0,0,0,16,51a1,1,0,0,1,0,2Z" fill="#bfbebe"/><path d="M44,53a6.97629,6.97629,0,0,1-6.90332-5.835,1.00012,1.00012,0,1,1,1.97266-.33105A4.98136,4.98136,0,0,0,44,51a1,1,0,0,1,0,2Z" fill="#bfbebe"/></g><g data-name="Layer 1" id="Layer_1"><path d="M59.707,58.29332l-6.42139-6.42139a10.91173,10.91173,0,0,0,1.6637-4.87158H57a1,1,0,0,0,0-2H54.94934a10.99716,10.99716,0,0,0-21.4494-2.27991A4.98458,4.98458,0,0,0,30,41.00036a4.98458,4.98458,0,0,0-3.49994,1.72009,10.99716,10.99716,0,0,0-21.4494,2.27991H3a1,1,0,0,0,0,2H5.05066a10.9134,10.9134,0,0,0,1.66388,4.87189L.293,58.29332A.99989.99989,0,1,0,1.707,59.70739l6.23962-6.2392A10.98382,10.98382,0,0,0,27,46.00036a3.63409,3.63409,0,0,1,3-3,3.63409,3.63409,0,0,1,3,3,10.98379,10.98379,0,0,0,19.05353,7.46759L58.293,59.70739A.99989.99989,0,0,0,59.707,58.29332ZM16,55.00036a9,9,0,1,1,9-9A9.01015,9.01015,0,0,1,16,55.00036Zm28,0a9,9,0,1,1,9-9A9.01015,9.01015,0,0,1,44,55.00036Z"/><path d="M18.08838,30.412a1.00024,1.00024,0,1,0,1.82324-.82324l-3.28125-7.26611,5.24268.66943a.98376.98376,0,0,0,.9292-.39453,1.00041,1.00041,0,0,0,.11133-1.00342l-4-9a.99983.99983,0,1,0-1.82715.8125l3.27832,7.37646-5.25488-.6709a.99038.99038,0,0,0-.93115.397,1.00066,1.00066,0,0,0-.10742,1.00635Z"/></g></svg>